<svg xmlns="http://www.w3.org/2000/svg" xmlns:xlink="http://www.w3.org/1999/xlink" version="1.1" id="Layer_1" x="0px" y="0px" style="enable-background:new 0 0 200 200;" xml:space="preserve" viewBox="17.89 74.7 164.41 50.6">
<style type="text/css">
	.st0{fill:#848484;}
	.st1{fill:#FF4E08;}
	.st2{opacity:0.5;}
	.st3{fill:#FFFFFF;}
</style>
<g>
	<path class="st0" d="M84.4,83.4h2.7v12.4h-2.7V83.4z"/>
	<path class="st0" d="M90.5,83.4l4.2,0c4.5,0,7.2,2.6,7.2,6.2s-2.8,6.2-7.2,6.2h-4.2V83.4z M94.7,93.3c3.1,0,4.5-1.4,4.5-3.7   s-1.4-3.8-4.5-3.8h-1.5v7.5L94.7,93.3L94.7,93.3z"/>
	<path class="st0" d="M104.6,83.4h9.8v2.5h-7.1v2.2h5v2.4h-5v2.9h7.1v2.5h-9.8V83.4L104.6,83.4z"/>
	<path class="st0" d="M117.1,83.4h2.7l6.3,8.4v-8.4h2.7v12.4h-2.7l-6.3-8.4v8.4h-2.7L117.1,83.4L117.1,83.4z"/>
	<path class="st0" d="M134.8,85.9h-3.9l0-2.5h10.6v2.5h-3.9v9.9h-2.7V85.9z"/>
	<path class="st0" d="M143.5,83.4h2.7v12.4h-2.7V83.4z"/>
	<path class="st0" d="M152.3,85.9h-3.9l0-2.5h10.6v2.5h-3.9v9.9h-2.7V85.9z"/>
	<path class="st0" d="M164.3,90.8l-5.2-7.4h3.2l3.4,4.8l3.4-4.8h3.2l-5.2,7.4v5h-2.7L164.3,90.8L164.3,90.8z"/>
	<path class="st0" d="M87.1,108.7v7.5h-2.7v-12.4h2.7l4.3,7.9l4.4-7.9h2.6v12.4h-2.7v-7.5l-4.3,7.8L87.1,108.7L87.1,108.7z"/>
	<path class="st0" d="M107.2,103.3l7.1,12.9h-2.9l-1.3-2.3h-5.9l-1.2,2.3h-3L107.2,103.3L107.2,103.3z M109,111.6l-1.8-3.3l-1.8,3.3   H109z"/>
	<path class="st0" d="M115.8,103.8h2.7l6.3,8.4v-8.4h2.7v12.4h-2.7l-6.3-8.4v8.4h-2.7L115.8,103.8L115.8,103.8z"/>
	<path class="st0" d="M136.2,103.3l7.1,12.9h-2.9l-1.3-2.3h-5.9l-1.2,2.3h-3L136.2,103.3L136.2,103.3z M138,111.6l-1.8-3.3l-1.8,3.3   H138z"/>
	<path class="st0" d="M143.5,110c0-3.6,2.9-6.4,6.7-6.4c2.1,0,4,0.9,5.2,2.4l-2.1,1.6c-0.7-0.9-1.9-1.4-3.1-1.4   c-2.2,0-3.9,1.6-3.9,3.9s1.8,3.9,3.9,3.9c1.3,0,2.4-0.6,3-1.4V110h2.7v3.4c-1.2,1.8-3.3,3.1-5.7,3.1   C146.4,116.5,143.5,113.6,143.5,110L143.5,110z"/>
	<path class="st0" d="M158.7,103.8h9.8v2.5h-7.1v2.2h5v2.4h-5v2.9h7.1v2.5h-9.8L158.7,103.8L158.7,103.8z"/>
	<path class="st0" d="M178.6,116.2l-4.8-5.2v5.2h-2.7v-12.4h5.9c2.9,0,4.7,1.5,4.7,3.9s-1.5,3.7-4.1,3.8l4.7,4.7L178.6,116.2   L178.6,116.2z M173.9,109.3h3.4c1,0,1.7-0.5,1.7-1.5s-0.7-1.5-1.7-1.5h-3.4V109.3L173.9,109.3z"/>
</g>
<g>
	<path class="st1" d="M34.1,125.3c-1.2,0-2.4-0.6-3.2-1.6l-12.1-15.1c-0.8-1-1.1-2.3-0.8-3.5l4.3-18.8c0.3-1.2,1.1-2.3,2.3-2.8   L42,75.1c0.6-0.3,1.2-0.4,1.8-0.4s1.2,0.1,1.8,0.4l17.6,8.4c1.2,0.6,2,1.6,2.3,2.8l4.3,18.8c0.3,1.2,0,2.5-0.8,3.5l-12.2,15.1   c-0.8,1-2,1.6-3.2,1.6L34.1,125.3L34.1,125.3L34.1,125.3z"/>
	<g>
		<g class="st2">
			<path class="st3" d="M35,119.9c-0.4,0-0.8-0.3-0.8-0.8c0-0.4,0.3-0.8,0.8-0.8l12.5,0l0.3-0.1c0.3-0.1,0.6-0.3,0.8-0.4l3.5-4.3     c0.3-0.3,0.7-0.4,1.1-0.1c0.3,0.3,0.4,0.7,0.1,1.1l-3.7,4.6l-0.2,0.1c-0.3,0.1-0.7,0.3-1,0.5l-0.6,0.3L35,119.9     C35,119.9,35,119.9,35,119.9z"/>
		</g>
		<g class="st2">
			<path class="st3" d="M54.5,112.5c-0.2,0-0.3-0.1-0.5-0.2c-0.3-0.3-0.4-0.7-0.1-1.1l4.8-5.9c0.2-0.2,0.3-0.6,0.2-0.9l-3-13.1     c-0.1-0.3-0.3-0.6-0.5-0.7l-11.4-5.4c-0.3-0.1-0.6-0.1-0.9,0l-5.2,2.5c-0.4,0.2-0.8,0-1-0.4s0-0.8,0.4-1l5.2-2.5     c0.7-0.3,1.5-0.3,2.2,0L56,89.3c0.7,0.3,1.2,1,1.4,1.7l3,13.1c0.2,0.8,0,1.5-0.5,2.2l-4.8,5.9C55,112.4,54.8,112.5,54.5,112.5     L54.5,112.5z"/>
		</g>
		<g class="st2">
			<path class="st3" d="M35,112.3c-0.8,0-1.5-0.3-2-0.9l-5.5-6.9c-0.5-0.6-0.7-1.4-0.5-2.2l2.6-11.2c0.2-0.8,0.7-1.4,1.4-1.7     l3.6-1.7c0.4-0.2,0.8,0,1,0.4s0,0.8-0.4,1l-3.6,1.7c-0.3,0.1-0.5,0.4-0.5,0.7l-2.6,11.2c-0.1,0.3,0,0.6,0.2,0.9l5.5,6.9     c0.2,0.2,0.5,0.4,0.8,0.4l9.1,0c0.3,0,0.6-0.1,0.8-0.4c0.3-0.3,0.7-0.4,1.1-0.1c0.3,0.3,0.4,0.7,0.1,1.1c-0.5,0.6-1.2,0.9-2,0.9     L35,112.3L35,112.3z"/>
		</g>
		<g class="st2">
			<path class="st3" d="M35.5,107.8c-0.2,0-0.4-0.1-0.6-0.3l-3.2-4c-0.5-0.6-0.7-1.4-0.5-2.2l0.4-1.9c0.1-0.4,0.5-0.7,0.9-0.6     s0.7,0.5,0.6,0.9l-0.4,1.9c-0.1,0.3,0,0.6,0.2,0.8l3.2,4c0.3,0.3,0.2,0.8-0.1,1.1C35.8,107.7,35.6,107.8,35.5,107.8L35.5,107.8z"/>
		</g>
		<g class="st2">
			<path class="st3" d="M33.2,96.8c-0.1,0-0.1,0-0.2,0c-0.4-0.1-0.7-0.5-0.6-0.9l0.5-2.2c0.2-0.8,0.7-1.4,1.4-1.7l8.1-3.9     c0.7-0.3,1.5-0.3,2.2,0l2.3,1.1c0.4,0.2,0.5,0.6,0.4,1s-0.6,0.5-1,0.4l-2.2-1.1c-0.3-0.1-0.6-0.1-0.9,0L35,93.4     c-0.3,0.1-0.5,0.4-0.5,0.7l-0.5,2.2C33.8,96.6,33.5,96.8,33.2,96.8L33.2,96.8z"/>
		</g>
		<g class="st2">
			<path class="st3" d="M41.5,116.1c-0.4,0-0.8-0.3-0.8-0.8s0.3-0.8,0.8-0.8h4.4c0.3,0,0.6-0.2,0.8-0.4l7.9-9.8     c0.2-0.2,0.3-0.6,0.2-0.9L52.6,94c-0.1-0.3-0.3-0.6-0.5-0.7l-2.5-1.2c-0.4-0.2-0.5-0.6-0.4-1s0.6-0.5,1-0.4l2.5,1.2     c0.7,0.3,1.2,1,1.4,1.7l2.2,9.5c0.2,0.8,0,1.5-0.5,2.2l-7.9,9.8c-0.5,0.6-1.2,0.9-2,0.9L41.5,116.1L41.5,116.1z"/>
		</g>
		<g class="st2">
			<path class="st3" d="M33.2,116.1c-0.8,0-1.5-0.3-2-0.9l-3.5-4.4c-0.3-0.3-0.2-0.8,0.1-1.1s0.8-0.2,1.1,0.1l3.5,4.4     c0.2,0.2,0.5,0.4,0.8,0.4h4.4c0.4,0,0.8,0.3,0.8,0.8s-0.3,0.8-0.8,0.8L33.2,116.1L33.2,116.1z"/>
		</g>
		<g class="st2">
			<path class="st3" d="M26.4,108.7c-0.2,0-0.4-0.1-0.6-0.3l-2.4-3c-0.5-0.6-0.7-1.4-0.5-2.2l1.4-5.9c0.1-0.4,0.5-0.7,0.9-0.6     c0.4,0.1,0.7,0.5,0.6,0.9l-1.4,5.9c-0.1,0.3,0,0.6,0.2,0.9l2.4,3c0.3,0.3,0.2,0.8-0.1,1.1C26.7,108.6,26.5,108.7,26.4,108.7     L26.4,108.7z"/>
		</g>
		<g class="st2">
			<path class="st3" d="M61.3,95.2c-0.3,0-0.7-0.2-0.7-0.6l-1.3-5.8c-0.1-0.3-0.3-0.6-0.5-0.7l-14.7-7c-0.3-0.1-0.6-0.1-0.9,0     l-14.7,7c-0.3,0.1-0.5,0.4-0.5,0.7l-1.3,5.7c-0.1,0.4-0.5,0.7-0.9,0.6c-0.4-0.1-0.7-0.5-0.6-0.9l1.3-5.7c0.2-0.8,0.7-1.4,1.4-1.7     l14.7-7c0.7-0.3,1.5-0.3,2.2,0l14.7,7c0.7,0.3,1.2,1,1.4,1.7l1.3,5.8c0.1,0.4-0.2,0.8-0.6,0.9C61.4,95.2,61.3,95.2,61.3,95.2     L61.3,95.2z"/>
		</g>
		<g class="st2">
			<path class="st3" d="M53.7,119.6c-0.2,0-0.3-0.1-0.5-0.2c-0.3-0.3-0.4-0.7-0.1-1.1l9.1-11.3c0.6-0.7,0.8-1.7,0.6-2.6l-1.6-7.1     c-0.1-0.4,0.2-0.8,0.6-0.9s0.8,0.2,0.9,0.6l1.6,7.1c0.3,1.4,0,2.8-0.9,3.9l-9.1,11.3C54.2,119.5,53.9,119.6,53.7,119.6     L53.7,119.6z"/>
		</g>
	</g>
</g>
<g>
	<path class="st3" d="M43.8,99.5l3.9-2.3c0.2-0.1,0.2-0.3,0-0.4l-4-2.3c-0.1,0-0.2,0-0.2,0l-3.9,2.3c-0.2,0.1-0.2,0.3,0,0.4l4,2.3   C43.7,99.6,43.8,99.6,43.8,99.5L43.8,99.5z"/>
	<path class="st3" d="M44.3,100.8v4.5c0,0.2,0.2,0.3,0.3,0.2l3.9-2.3c0.1,0,0.1-0.1,0.1-0.2v-4.5c0-0.2-0.2-0.3-0.3-0.2l-3.9,2.3   C44.4,100.7,44.3,100.7,44.3,100.8z"/>
	<path class="st3" d="M43,100.6l-4-2.3c-0.2-0.1-0.3,0-0.3,0.2v4.5c0,0.1,0,0.2,0.1,0.2l4,2.3c0.2,0.1,0.3,0,0.3-0.2v-4.5   C43.1,100.7,43,100.7,43,100.6z"/>
</g>
</svg>