<?xml version="1.0" encoding="UTF-8"?><svg id="Layer_1" xmlns="http://www.w3.org/2000/svg" viewBox="0 0 200 200"><defs><style>.cls-1{fill:#001c44;}.cls-2{fill:#fff;}.cls-3{fill:#ff4e08;}.cls-4{opacity:.5;}</style></defs><g><path class="cls-1" d="M84.4,83.42h2.72v12.4h-2.72v-12.4Z"/><path class="cls-1" d="M90.5,83.42l4.22-.02c4.46-.02,7.24,2.62,7.24,6.24s-2.79,6.18-7.24,6.18h-4.22v-12.4Zm4.21,9.93c3.13-.01,4.53-1.42,4.53-3.7s-1.4-3.76-4.53-3.78h-1.5v7.49h1.5Z"/><path class="cls-1" d="M104.61,83.42h9.79v2.47h-7.08v2.17h4.97v2.41h-4.97v2.88h7.09v2.48h-9.8v-12.4Z"/><path class="cls-1" d="M117.07,83.42h2.7l6.29,8.39v-8.39h2.71v12.4h-2.67l-6.3-8.37v8.37h-2.72v-12.4Z"/><path class="cls-1" d="M134.8,85.89h-3.94l-.02-2.48h10.58v2.48h-3.94v9.93h-2.68v-9.93Z"/><path class="cls-1" d="M143.5,83.42h2.72v12.4h-2.72v-12.4Z"/><path class="cls-1" d="M152.26,85.89h-3.94l-.02-2.48h10.58v2.48h-3.94v9.93h-2.68v-9.93Z"/><path class="cls-1" d="M164.3,90.78l-5.22-7.36h3.23l3.35,4.82,3.35-4.82h3.23l-5.22,7.36v5.03h-2.71v-5.03Z"/><path class="cls-1" d="M87.11,108.73v7.49h-2.71v-12.4h2.71l4.34,7.94,4.42-7.94h2.64v12.4h-2.71v-7.46l-4.32,7.84-4.38-7.88Z"/><path class="cls-1" d="M107.22,103.28l7.11,12.94h-2.92l-1.26-2.34h-5.92l-1.25,2.34h-2.98l7.21-12.94Zm1.73,8.34l-1.76-3.27-1.75,3.27h3.51Z"/><path class="cls-1" d="M115.83,103.82h2.7l6.29,8.39v-8.39h2.71v12.4h-2.67l-6.3-8.37v8.37h-2.72v-12.4Z"/><path class="cls-1" d="M136.23,103.28l7.11,12.94h-2.92l-1.26-2.34h-5.92l-1.25,2.34h-2.98l7.21-12.94Zm1.73,8.34l-1.76-3.27-1.75,3.27h3.51Z"/><path class="cls-1" d="M143.54,110.03c0-3.62,2.89-6.45,6.66-6.45,2.14,0,3.99,.91,5.2,2.36l-2.09,1.64c-.72-.9-1.85-1.45-3.11-1.45-2.18,0-3.95,1.62-3.95,3.9s1.77,3.9,3.95,3.9c1.28,0,2.42-.64,3.01-1.41v-2.49h2.72v3.36c-1.23,1.8-3.34,3.07-5.72,3.07-3.77,0-6.66-2.82-6.66-6.43Z"/><path class="cls-1" d="M158.67,103.82h9.79v2.47h-7.08v2.17h4.97v2.41h-4.97v2.88h7.09v2.48h-9.8v-12.4Z"/><path class="cls-1" d="M178.61,116.22l-4.76-5.19v5.19h-2.72v-12.4h5.91c2.87,0,4.68,1.46,4.68,3.95s-1.47,3.69-4.15,3.78l4.67,4.67h-3.62Zm-4.76-6.92h3.4c1.03,0,1.69-.51,1.69-1.53s-.66-1.52-1.69-1.52h-3.4v3.04Z"/></g><g><path class="cls-3" d="M34.06,125.34c-1.25,0-2.43-.56-3.23-1.56l-12.15-15.1c-.8-1.01-1.11-2.29-.8-3.54l4.34-18.85c.28-1.25,1.11-2.26,2.26-2.81l17.56-8.4c.56-.28,1.18-.42,1.81-.42s1.25,.14,1.8,.42l17.56,8.37c1.15,.56,1.98,1.56,2.26,2.81l4.34,18.85c.28,1.25,0,2.53-.8,3.54l-12.15,15.1c-.8,.97-1.98,1.56-3.23,1.56l-19.58,.03h0Z"/><g><g class="cls-4"><path class="cls-2" d="M35.02,119.92c-.42,0-.76-.34-.76-.76,0-.42,.34-.76,.76-.76l12.55-.02,.26-.13c.28-.13,.58-.28,.84-.4l3.48-4.34c.26-.33,.74-.38,1.07-.12,.33,.26,.38,.74,.12,1.07l-3.7,4.61-.16,.08c-.3,.14-.66,.31-.99,.47l-.57,.28-12.9,.02h0Z"/></g><g class="cls-4"><path class="cls-2" d="M54.54,112.52c-.17,0-.34-.06-.48-.17-.33-.26-.38-.74-.12-1.07l4.77-5.94c.19-.24,.26-.56,.2-.86l-3.02-13.1c-.07-.3-.27-.56-.54-.69l-11.44-5.43c-.27-.13-.59-.13-.87,0l-5.23,2.5c-.38,.18-.84,.02-1.02-.36-.18-.38-.02-.84,.36-1.02l5.23-2.5c.7-.33,1.52-.33,2.19,0l11.42,5.42c.69,.32,1.2,.97,1.38,1.72l3.02,13.1c.17,.75,0,1.54-.49,2.15l-4.78,5.95c-.15,.19-.37,.29-.6,.29Z"/></g><g class="cls-4"><path class="cls-2" d="M35.03,112.29c-.77,0-1.49-.34-1.98-.94l-5.54-6.9c-.49-.62-.67-1.41-.49-2.16l2.59-11.23c.18-.76,.68-1.38,1.37-1.72l3.57-1.71c.38-.18,.84-.02,1.02,.36,.18,.38,.02,.84-.36,1.02l-3.57,1.71c-.28,.13-.48,.39-.55,.69l-2.59,11.23c-.07,.3,0,.62,.2,.87l5.54,6.89c.2,.24,.49,.38,.79,.38l9.07-.02c.31,0,.6-.14,.79-.38,.26-.33,.74-.38,1.07-.12,.33,.26,.38,.74,.12,1.07-.48,.6-1.2,.95-1.98,.95l-9.07,.02Z"/></g><g class="cls-4"><path class="cls-2" d="M35.48,107.81c-.22,0-.44-.1-.6-.29l-3.24-4.03c-.48-.59-.67-1.4-.49-2.15l.44-1.94c.09-.41,.5-.67,.91-.58,.41,.09,.67,.5,.58,.91l-.44,1.95c-.07,.3,0,.62,.19,.85l3.24,4.04c.26,.33,.21,.81-.12,1.07-.14,.11-.31,.17-.48,.17Z"/></g><g class="cls-4"><path class="cls-2" d="M33.15,96.8c-.06,0-.11,0-.17-.02-.41-.09-.67-.5-.57-.92l.5-2.15c.18-.76,.68-1.38,1.37-1.72l8.12-3.88c.68-.33,1.48-.34,2.18,0l2.26,1.07c.38,.18,.54,.64,.36,1.02-.18,.38-.64,.54-1.02,.36l-2.25-1.07c-.28-.13-.59-.13-.86,0l-8.12,3.88c-.28,.13-.48,.39-.55,.69l-.5,2.15c-.08,.35-.4,.59-.74,.59Z"/></g><g class="cls-4"><path class="cls-2" d="M41.49,116.1c-.42,0-.76-.34-.76-.76s.34-.76,.76-.76h4.44c.31-.01,.6-.15,.79-.38l7.87-9.8c.19-.24,.26-.56,.2-.86l-2.19-9.49c-.07-.31-.27-.56-.54-.69l-2.48-1.18c-.38-.18-.54-.64-.36-1.02,.18-.38,.64-.54,1.02-.36l2.48,1.18c.7,.33,1.2,.96,1.38,1.72l2.19,9.49c.17,.75,0,1.54-.49,2.15l-7.87,9.81c-.47,.59-1.19,.94-1.97,.95h-4.45Z"/></g><g class="cls-4"><path class="cls-2" d="M33.21,116.11c-.78,0-1.5-.35-1.99-.95l-3.52-4.38c-.26-.33-.21-.81,.12-1.07,.33-.26,.81-.21,1.07,.12l3.52,4.38c.19,.24,.48,.38,.79,.38h4.4c.42,0,.76,.34,.76,.76s-.34,.76-.76,.76h-4.4Z"/></g><g class="cls-4"><path class="cls-2" d="M26.38,108.68c-.22,0-.44-.1-.6-.29l-2.41-3c-.49-.61-.68-1.4-.5-2.16l1.36-5.89c.1-.41,.51-.67,.92-.57,.41,.09,.67,.5,.57,.92l-1.36,5.89c-.07,.3,0,.62,.2,.86l2.41,3c.26,.33,.21,.81-.12,1.07-.14,.11-.31,.17-.48,.17Z"/></g><g class="cls-4"><path class="cls-2" d="M61.29,95.16c-.35,0-.66-.24-.74-.59l-1.35-5.85c-.07-.3-.27-.56-.55-.69l-14.74-7c-.27-.13-.6-.13-.87,0l-14.71,7.04c-.28,.13-.48,.39-.55,.69l-1.32,5.72c-.1,.41-.5,.67-.92,.57-.41-.09-.67-.5-.57-.92l1.32-5.72c.18-.76,.68-1.38,1.37-1.72l14.71-7.04c.69-.33,1.49-.33,2.18,0l14.74,7c.7,.34,1.2,.97,1.38,1.72l1.35,5.85c.09,.41-.16,.82-.57,.92-.06,.01-.12,.02-.17,.02Z"/></g><g class="cls-4"><path class="cls-2" d="M53.73,119.63c-.17,0-.34-.06-.48-.17-.33-.26-.38-.74-.12-1.07l9.1-11.31c.59-.74,.8-1.68,.58-2.63l-1.63-7.07c-.09-.41,.16-.82,.57-.92,.41-.1,.82,.16,.92,.57l1.63,7.08c.31,1.39,0,2.82-.88,3.92l-9.11,11.32c-.15,.19-.37,.28-.6,.28Z"/></g></g></g><g><path class="cls-2" d="M43.82,99.54l3.91-2.28c.15-.09,.15-.3,0-.39l-3.95-2.28c-.07-.04-.16-.04-.22,0l-3.91,2.27c-.15,.09-.15,.3,0,.39l3.95,2.28c.07,.04,.16,.04,.22,0Z"/><path class="cls-2" d="M44.33,100.81v4.52c-.01,.17,.17,.28,.32,.19l3.91-2.27c.07-.04,.11-.11,.11-.19v-4.52c.01-.17-.17-.28-.32-.19l-3.91,2.27c-.07,.04-.11,.11-.11,.19Z"/><path class="cls-2" d="M42.98,100.61l-3.95-2.28c-.15-.09-.34,.02-.34,.19v4.53c-.01,.08,.03,.15,.1,.19l3.95,2.28c.15,.09,.34-.02,.34-.19v-4.53c.01-.08-.03-.15-.1-.19Z"/></g></svg>